<?xml version="1.0" encoding="UTF-8"?>
<svg width="100px" height="100px" viewBox="0 0 100 100" version="1.1" xmlns="http://www.w3.org/2000/svg" xmlns:xlink="http://www.w3.org/1999/xlink">
    <!-- Generator: Sketch 45.2 (43514) - http://www.bohemiancoding.com/sketch -->
    <title>gluster</title>
    <desc>Created with Sketch.</desc>
    <defs>
        <linearGradient x1="40.2421484%" y1="21.3758646%" x2="67.176032%" y2="119.018995%" id="linearGradient-1">
            <stop stop-color="#B7ED26" offset="0%"></stop>
            <stop stop-color="#47610F" offset="100%"></stop>
        </linearGradient>
        <linearGradient x1="87.3627457%" y1="31.1368205%" x2="92.9503665%" y2="48.5217846%" id="linearGradient-2">
            <stop stop-color="#1E1500" offset="0%"></stop>
            <stop stop-color="#663E00" offset="100%"></stop>
        </linearGradient>
        <linearGradient x1="40.0550575%" y1="21.3312097%" x2="66.8663437%" y2="119.465472%" id="linearGradient-3">
            <stop stop-color="#B7ED26" offset="0%"></stop>
            <stop stop-color="#5B7C13" offset="100%"></stop>
        </linearGradient>
        <radialGradient cx="32.3761537%" cy="28.3924531%" fx="32.3761537%" fy="28.3924531%" r="54.3453629%" gradientTransform="translate(0.323762,0.283925),scale(1.000000,0.946905),translate(-0.323762,-0.283925)" id="radialGradient-4">
            <stop stop-color="#9D6E00" offset="0%"></stop>
            <stop stop-color="#623B00" offset="100%"></stop>
        </radialGradient>
        <radialGradient cx="35.7027323%" cy="28.3237242%" fx="35.7027323%" fy="28.3237242%" r="54.3454682%" gradientTransform="translate(0.357027,0.283237),scale(1.000000,0.946903),translate(-0.357027,-0.283237)" id="radialGradient-5">
            <stop stop-color="#FFC022" offset="0%"></stop>
            <stop stop-color="#804D00" stop-opacity="0" offset="100%"></stop>
        </radialGradient>
        <radialGradient cx="7.80287877%" cy="80.4661425%" fx="7.80287877%" fy="80.4661425%" r="50.0006147%" gradientTransform="translate(0.078029,0.804661),scale(1.000000,0.946914),translate(-0.078029,-0.804661)" id="radialGradient-6">
            <stop stop-color="#FFC022" offset="0%"></stop>
            <stop stop-color="#804D00" stop-opacity="0" offset="100%"></stop>
        </radialGradient>
        <linearGradient x1="7.91666667%" y1="68.0862069%" x2="106.354167%" y2="32.7413793%" id="linearGradient-7">
            <stop stop-color="#2D2D2D" offset="0%"></stop>
            <stop stop-color="#2D2D2D" stop-opacity="0" offset="100%"></stop>
        </linearGradient>
        <radialGradient cx="34.8153974%" cy="33.1425634%" fx="34.8153974%" fy="33.1425634%" r="42.2774368%" gradientTransform="translate(0.348154,0.331426),scale(1.000000,0.858057),translate(-0.348154,-0.331426)" id="radialGradient-8">
            <stop stop-color="#FFFFFF" offset="0%"></stop>
            <stop stop-color="#EDEDED" offset="45.091%"></stop>
            <stop stop-color="#838383" offset="100%"></stop>
        </radialGradient>
        <linearGradient x1="37.9240509%" y1="10.3401944%" x2="105.754426%" y2="137.266536%" id="linearGradient-9">
            <stop stop-color="#FFFFFF" offset="0%"></stop>
            <stop stop-color="#FFFFFF" stop-opacity="0" offset="100%"></stop>
        </linearGradient>
        <radialGradient cx="36.3865974%" cy="27.6375026%" fx="36.3865974%" fy="27.6375026%" r="54.3443331%" gradientTransform="translate(0.363866,0.276375),scale(1.000000,0.805420),translate(-0.363866,-0.276375)" id="radialGradient-10">
            <stop stop-color="#FFFFFF" offset="0%"></stop>
            <stop stop-color="#838383" offset="100%"></stop>
        </radialGradient>
        <linearGradient x1="76.9313531%" y1="-18.1056354%" x2="137.617245%" y2="111.7277%" id="linearGradient-11">
            <stop stop-color="#FFFFFF" offset="0%"></stop>
            <stop stop-color="#FFFFFF" stop-opacity="0" offset="100%"></stop>
        </linearGradient>
        <linearGradient x1="81.6734037%" y1="97.7499156%" x2="71.9457348%" y2="8.65417089%" id="linearGradient-12">
            <stop stop-color="#FFFFFF" stop-opacity="0" offset="0%"></stop>
            <stop stop-color="#FFFFFF" stop-opacity="0.404" offset="69.043%"></stop>
            <stop stop-color="#FFFFFF" stop-opacity="0" offset="100%"></stop>
        </linearGradient>
        <linearGradient x1="82.455475%" y1="97.7546115%" x2="73.0128399%" y2="8.65935213%" id="linearGradient-13">
            <stop stop-color="#FFFFFF" stop-opacity="0" offset="0%"></stop>
            <stop stop-color="#FFFFFF" stop-opacity="0.404" offset="69.043%"></stop>
            <stop stop-color="#FFFFFF" stop-opacity="0" offset="100%"></stop>
        </linearGradient>
        <linearGradient x1="87.9166667%" y1="72.8275862%" x2="-113.46875%" y2="-27.1034483%" id="linearGradient-14">
            <stop stop-color="#2D2D2D" offset="0%"></stop>
            <stop stop-color="#2D2D2D" stop-opacity="0" offset="100%"></stop>
        </linearGradient>
        <linearGradient x1="61.7073911%" y1="14.9732173%" x2="38.8420094%" y2="161.522108%" id="linearGradient-15">
            <stop stop-color="#DADADA" offset="0%"></stop>
            <stop stop-color="#FFFFFF" stop-opacity="0" offset="100%"></stop>
        </linearGradient>
        <linearGradient x1="33.3465043%" y1="-9.76934761%" x2="35.5124759%" y2="125.074056%" id="linearGradient-16">
            <stop stop-color="#FFFFFF" offset="0%"></stop>
            <stop stop-color="#FFFFFF" stop-opacity="0" offset="100%"></stop>
        </linearGradient>
        <linearGradient x1="49.0318526%" y1="-12.7584304%" x2="50.9427647%" y2="93.3023905%" id="linearGradient-17">
            <stop stop-color="#FFFFFF" offset="0%"></stop>
            <stop stop-color="#FFFFFF" stop-opacity="0" offset="100%"></stop>
        </linearGradient>
    </defs>
    <g id="Page-1" stroke="none" stroke-width="1" fill="none" fill-rule="evenodd">
        <g id="gluster" fill-rule="nonzero">
            <path d="M50,0 C22.3857625,-1.69088438e-15 3.38176876e-15,22.3857625 0,50 C-3.38176876e-15,77.6142375 22.3857625,100 50,100 C63.2608245,100 75.9785201,94.732158 85.3553391,85.3553391 C94.732158,75.9785201 100,63.2608245 100,50 C100,22.3857625 77.6142375,1.69088438e-15 50,0 Z" id="Mask" fill="#EDEFEE"></path>
            <g transform="translate(19.000000, 18.000000)">
                <ellipse id="Oval" fill="#000000" opacity="0.2" cx="30.1865304" cy="50.7392093" rx="19.7751915" ry="14.2207798"></ellipse>
                <path d="M24.5356243,38.8458552 C19.8281375,38.8833779 15.1614376,39.6068258 10.8440189,41.4343966 C6.84443861,43.1279433 3.23976915,45.7470409 0.393546695,49.0277335 C4.33365163,54.0947324 9.58289612,58.133872 15.4895068,60.6452046 C20.9598741,62.9706768 27.0026233,63.8171773 32.9228751,63.2847639 C39.8464323,62.6621076 48.48468,57.3353882 46.2379853,51.7102623 C47.7722718,51.2175037 47.1659916,48.3361962 46.6580572,47.1316159 C45.5930939,44.6055509 43.3807749,42.6913589 40.9081149,41.5073767 C38.4356595,40.3233263 35.7037497,39.7990976 32.9873909,39.4286726 C30.1999617,39.0485147 27.3596049,38.8237429 24.5353447,38.8462235 L24.5356243,38.8458552 Z" id="Shape" fill="url(#linearGradient-1)"></path>
                <path d="M33.5687828,35.7970619 C31.7006296,39.3359811 30.4475551,43.1789612 29.6312697,47.0966946 C29.1243174,49.5297954 28.7822455,52.0111857 28.8602046,54.4956453 C28.8728854,54.8997366 28.8966646,55.3035414 28.9315136,55.7062959 C30.0590897,54.7358657 31.2110834,53.793809 32.3860624,52.8814218 C35.4212146,50.5244386 38.6071013,48.3670252 41.6504381,46.0206139 C43.7045881,44.4372193 45.7314559,42.7250525 47.0740163,40.5061857 C47.7454056,39.3967524 48.2351495,38.167618 48.4212828,36.8842602 C48.607457,35.6009024 48.4820336,34.2620252 47.9775776,33.0674029 C47.3977476,31.6942865 46.3176563,30.5414743 44.9916018,29.8607135 C43.6656154,29.1800073 42.1045241,28.9739035 40.6441726,29.2730672 C39.0188998,29.6060472 37.5586165,30.5399192 36.3950278,31.722469 C35.2314391,32.9050189 34.3428557,34.3300399 33.5683804,35.7971438 L33.5687828,35.7970619 Z" id="Shape" fill="url(#linearGradient-2)"></path>
                <path d="M24.6904512,38.4018363 C24.5138122,38.4012225 24.3374937,38.4024502 24.1609774,38.4037802 C19.4534906,38.4412987 14.7867907,39.1647508 10.469372,40.9923216 C6.46924607,42.6851863 2.86512225,45.3049659 0.0188997901,48.5856584 C3.95866369,53.6526574 9.20756716,57.691797 15.1148599,60.2024475 C20.5852272,62.5279197 26.6463919,63.5433657 32.5482282,62.8420068 C36.6442513,62.3552775 40.7929292,60.9533919 43.6807571,58.0079984 C46.2901695,55.7667602 46.9497183,53.3282712 46.0496763,51.5562198 C47.8167487,50.325244 46.8384066,48.099352 46.2830215,46.6889271 C45.2180582,44.162862 43.0057392,42.24867 40.5330792,41.0646878 C38.0606238,39.8806375 35.3287141,39.3564087 32.6123552,38.9859837 C29.9991915,38.629575 27.3394433,38.4091275 24.689585,38.4015908 L24.6904512,38.4018363 Z" id="Shape" fill="url(#linearGradient-3)"></path>
                <path d="M1.94023643,48.3378828 C13.9003889,47.1987848 34.0617708,47.8822562 45.7941288,51.5272568 C45.680219,40.5924933 25.0629468,32.6184308 1.94023643,48.3378828 Z" id="Shape" fill="#FFFFFF" opacity="0.181"></path>
                <g id="Group" opacity="0.121" transform="translate(1.282455, 39.262717)" fill="#000000">
                    <path d="M0.058988107,9.17453324 C15.2346199,6.60089468 36.3561275,8.73079207 44.6100697,12.2806336 C36.356755,10.6831855 13.4599565,7.66581828 0.058988107,9.17453324 Z" id="Shape"></path>
                    <path d="M24.718527,22.1205401 C26.6620596,19.2198941 33.840975,11.5026809 35.3570948,10.5124337 L36.7547992,10.7043145 C34.396028,12.3929432 27.5714805,18.3294686 24.7180877,22.1203958 L24.718527,22.1205401 Z" id="Shape"></path>
                    <path d="M15.2239519,19.7233639 C17.1674845,16.8227178 23.902734,10.5256119 26.1285937,9.53536475 L27.5262981,9.72724553 C24.7237355,10.7058833 18.0762779,15.9327316 15.2235126,19.7238471 L15.2239519,19.7233639 Z" id="Shape"></path>
                    <path d="M6.96561689,15.8201083 C8.90914951,12.9194622 13.1592426,9.55073931 15.3858554,8.56080592 L16.7835598,8.7526867 C13.9809972,9.73132449 9.99616227,12.2958011 6.96580515,15.8205915 L6.96561689,15.8201083 Z" id="Shape"></path>
                    <path d="M29.7764434,0.0376519832 C32.3412337,2.67203574 35.7926028,7.90440634 36.1553169,9.95957709 L37.8192835,10.4776684 C36.0817073,7.1916543 33.4280582,3.29618012 29.7761924,0.03740097 L29.7764434,0.0376519832 Z" id="Shape"></path>
                    <path d="M19.8363198,0.307491196 C22.6673097,2.85314178 26.3852548,6.75413825 26.7479689,8.80930901 L28.1456732,8.61742822 C26.408097,5.33141414 23.5769188,3.12187026 19.8365081,0.307007996 L19.8363198,0.307491196 Z" id="Shape"></path>
                    <path d="M9.01137465,2.43482825 C10.8661741,3.64929297 13.8738145,5.77556321 14.8577863,8.27446258 L16.2554907,8.0825818 C14.8729099,6.03902041 11.3317409,3.20828156 9.01124914,2.43478432 L9.01137465,2.43482825 Z" id="Shape"></path>
                </g>
                <path d="M43.6886543,45.4328147 C43.6886543,47.6230149 40.5370176,47.5630232 32.9359522,47.5630232 C25.3348869,47.5630232 23.3529634,47.9521097 21.1415527,48.5267188 C20.8788191,46.1298734 24.5395572,42.3337021 32.1408735,42.3337021 C39.7421899,42.3337021 43.6886543,43.2426772 43.6886543,45.4328147 L43.6886543,45.4328147 Z" id="Shape" fill="#000000" opacity="0.75" transform="translate(32.408506, 45.430210) rotate(-10.052135) translate(-32.408506, -45.430210) "></path>
                <path d="M16.6926548,22.5487933 C15.4720462,24.9538615 14.8770881,27.6484627 14.7615477,30.3426548 C14.6460346,33.037256 14.9993332,35.7364953 15.5986359,38.3663694 C16.4318363,42.0226705 17.757618,45.5988982 19.8314795,48.7233998 C20.2179874,49.3057261 20.6296905,49.8713694 21.0650472,50.4181742 C23.2285992,48.8051784 25.6008604,47.4724397 28.103872,46.4637461 C30.5587303,45.4743547 33.1261962,44.799596 35.6569675,44.0258709 C37.918872,43.3344701 40.1685677,42.5570619 42.2463169,41.4273715 C44.3242707,40.2977492 46.2360756,38.7966789 47.5937775,36.8598426 C49.6514061,33.925021 50.2958814,30.0983421 49.5560546,26.5914795 C48.8162277,23.0844124 46.754234,19.9144858 44.0067733,17.6128856 C40.2908604,14.5000472 35.3030483,12.9600997 30.4768153,13.4157135 C27.6136097,13.6859512 24.8113116,14.638914 22.4046747,16.2131007 C19.9979014,17.7873557 17.9941553,19.9839874 16.6927912,22.5487251 L16.6926548,22.5487933 Z" id="Shape" fill="url(#radialGradient-4)"></path>
                <path d="M16.5896642,22.509234 C15.3690556,24.9143022 14.7740976,27.6089035 14.6585572,30.3030955 C14.5430441,32.9976967 14.8963426,35.696936 15.4955771,38.3268101 C16.3287775,41.9831112 17.6545593,45.5593389 19.7284208,48.6838405 C20.1149286,49.2661668 20.5266317,49.8318101 20.9619885,50.3786149 C23.1255404,48.7656191 25.4978017,47.4328804 28.0008132,46.4241868 C30.4556716,45.4347954 33.0231375,44.7600367 35.5539087,43.9863116 C37.8158132,43.2949108 40.0655089,42.5175026 42.1432581,41.3878122 C44.221212,40.2581899 46.1330168,38.7571196 47.4907188,36.8202833 C49.5483473,33.8854617 50.1928227,30.0587828 49.4529958,26.5519203 C48.7131689,23.0448531 46.6511752,19.8749265 43.9037146,17.5733263 C40.1878017,14.4604879 35.1999895,12.9205404 30.3737566,13.3761542 C27.5105509,13.6463919 24.7082529,14.5993547 22.3016159,16.1735414 C19.8948426,17.7477964 17.8910965,19.9444281 16.5897324,22.5091658 L16.5896642,22.509234 Z" id="Shape" fill="url(#radialGradient-5)"></path>
                <path d="M20.6862234,17.9119852 C20.157211,17.913911 19.6275184,18.0871535 19.1176629,18.2408174 C17.9901758,18.5806137 16.9325262,19.0197927 16.0829235,19.8995502 C15.2333794,20.7792435 14.5549403,21.8456726 14.0177597,22.9827775 C13.2408091,24.627388 12.745965,26.4788906 12.8999477,28.3228186 C12.9769509,29.2447505 13.2179345,30.1555129 13.6384319,30.9586888 C14.5623287,32.4747218 14.5821483,32.8501834 16.0999284,33.2732116 C16.5529463,30.6232833 18.0011997,28.0654711 19.0170991,25.996356 C19.8300532,24.3527727 20.7312572,22.8839212 21.9128084,21.5346602 C22.7918473,20.709723 23.4421988,19.6898977 24.586515,19.4173366 C24.0799609,18.8761365 23.5638722,18.4482232 22.9013826,18.1736079 C22.2655146,17.9100466 21.366363,17.909456 20.6862234,17.9119531 L20.6862234,17.9119852 Z" id="Shape" fill="#000000" opacity="0.526"></path>
                <path d="M26.3676285,5.65731899 C26.4251041,6.25388667 26.560937,8.16537775 26.6575026,10.2466737 C26.7608342,12.4736569 26.7873935,14.0920409 26.8038652,14.9089402 C26.4170504,15.2889071 25.8867036,15.5756915 25.3533353,15.6753673 C24.8264397,15.7738153 24.3228841,15.6823938 24.0543583,15.3174648 C24.3888867,14.0876485 24.8158064,12.4727429 25.1617455,10.2967093 C25.4792975,8.29916999 25.6117597,6.45870829 25.6066784,5.87943757 C25.6012015,5.25277754 25.6098499,4.57554984 25.6325352,3.8503872 C23.5615383,5.50096432 21.3085005,7.17773242 18.9713652,8.46668311 C16.6744711,9.46078069 14.5437943,10.0343221 13.0080756,10.2141805 C11.4825194,10.3928384 10.7055887,10.1738859 11.0610084,9.58442392 C11.4476049,8.94329066 12.3709664,8.37861595 13.5854365,7.79804932 C14.7269265,7.25239717 16.3907356,6.5784638 17.9074932,5.91577754 C21.0293347,5.01784995 23.4976296,4.18328541 26.126276,2.92973347 C26.2100393,3.90950787 26.2910131,4.86616055 26.3672261,5.65720986 L26.3676285,5.65731899 Z" id="Shape" fill="#2D2D2D"></path>
                <path d="M17.1339397,22.6581927 C15.9133252,25.0632759 15.3183611,27.7577773 15.2028322,30.4521532 C15.087316,33.1467802 15.4406171,35.8461136 16.0398358,38.4757909 C16.8730115,42.1321122 18.1988005,45.7081093 20.2725463,48.8325964 C20.6590502,49.4149408 21.0707683,49.9805426 21.506088,50.5273749 C23.6696337,48.9144267 26.0418342,47.581672 28.5444987,46.5729126 C30.9993453,45.583544 33.566834,44.9087577 36.0981141,44.1350722 C38.3599942,43.4436563 40.6095747,42.6662683 42.6878387,41.5365833 C44.7658516,40.4068983 46.6775056,38.9058393 48.0352988,36.9692095 C50.092917,34.0344257 50.7374562,30.2075409 49.9975947,26.7008862 C49.257796,23.1937922 47.1957224,20.0239345 44.4481317,17.7221432 C40.7321947,14.6092655 35.7442482,13.0694877 30.918519,13.5249512 C28.0553367,13.795192 25.2528996,14.7481386 22.8459338,16.322368 C20.4390935,17.8965974 18.4355688,20.0932769 17.1340652,22.6579417 L17.1339397,22.6581927 Z" id="Shape" fill="url(#radialGradient-6)" opacity="0.524"></path>
                <ellipse id="Oval" fill="url(#linearGradient-7)" opacity="0.374" transform="translate(39.845146, 15.701938) rotate(-6.567613) translate(-39.845146, -15.701938) " cx="39.8451458" cy="15.7019382" rx="1.71720886" ry="1.16426065"></ellipse>
                <path d="M46.0947534,4.8761595 C45.7693646,5.6320829 44.7375971,7.92461175 43.5314481,10.4710703 C42.2452938,13.1864061 41.2443075,15.1821039 40.740745,16.1928437 C40.1730488,16.4581023 39.502744,16.5820934 38.9636464,16.4725278 C38.4262403,16.3632964 38.0366632,16.0232707 38.0749948,15.362958 C39.2881007,13.745256 40.8385519,11.6750776 42.6290189,8.96390241 C44.2725708,6.47535047 45.5766632,4.23936411 45.9983788,3.41264323 C46.5331112,2.36398111 47.1360493,1.22501469 47.8051469,0.000177334732 C49.9380745,3.99116369 52.6950157,7.64262225 55.8759234,11.2043221 C57.9971878,13.8516569 59.2851154,15.1948993 60.6468416,16.8412476 C61.7470672,18.1712581 62.2150262,18.9696737 61.4038562,18.8855079 C59.7710126,18.7163578 56.7324502,16.4369244 53.7464061,12.9181941 C51.2705404,9.4513001 49.2277807,5.07317838 47.7825026,1.00948478 C47.1891133,2.36439035 46.5663956,3.77897587 46.0944124,4.87633683 L46.0947534,4.8761595 Z" id="Shape" fill="#2D2D2D"></path>
                <path d="M35.5143828,19.2946156 C37.0249804,19.2379179 38.5390922,19.7824597 39.7095041,20.7391339 C40.879916,21.695808 41.7069418,23.0492713 42.0881681,24.5120509 C42.4569944,25.9272007 42.4171586,27.4331545 42.0780648,28.8557092 C41.7389773,30.2783266 41.1076477,31.6208708 40.3185249,32.8521534 C39.1772933,34.6329667 37.6547726,36.2282185 35.7342704,37.1146089 C34.7740193,37.5578041 33.7234035,37.8163791 32.6658848,37.8197678 C31.6083034,37.8231565 30.5447603,37.5668092 29.6283738,37.0388657 C28.6389424,36.4688586 27.8390888,35.5919627 27.305874,34.5821993 C26.7726466,33.5724358 26.5008118,32.4339654 26.4563197,31.292922 C26.3674297,29.0108981 27.1716447,26.7739938 28.2842608,24.7797565 C29.0550596,23.3979914 29.9914017,22.0869494 31.2056154,21.0724794 C32.4198291,20.0580095 33.9332506,19.3540429 35.5143828,19.2946783 L35.5143828,19.2946156 Z" id="Shape" fill="#000000" opacity="0.504"></path>
                <path d="M35.2657398,18.8575026 C36.7762907,18.8008039 38.2904565,19.3453437 39.4609339,20.3020304 C40.6313431,21.2586831 41.4583368,22.6121563 41.8396065,24.0748951 C42.2084355,25.4900944 42.1685965,26.9960073 41.8295073,28.4183683 C41.490416,29.8409339 40.8590771,31.1835624 40.0700057,32.4148793 C38.9287885,34.1957293 37.4062334,35.7909234 35.4858347,36.6774607 C34.5256353,37.1206542 33.4749952,37.3792288 32.4174664,37.382639 C31.3599375,37.3860493 30.2963384,37.1296779 29.3799952,36.6017524 C28.3905356,36.0317576 27.590756,35.1548374 27.0575241,34.1451207 C26.5242854,33.135404 26.2524244,31.996915 26.2079543,30.8558342 C26.1190619,28.573809 26.9232953,26.3370724 28.0358662,24.3426023 C28.8066584,22.9608237 29.7429858,21.6498426 30.9571831,20.6353515 C32.1713803,19.6208604 33.6847959,18.9169098 35.2658032,18.8575708 L35.2657398,18.8575026 Z" id="Shape" fill="url(#radialGradient-8)"></path>
                <path d="M35.5985834,20.5940189 C35.5403903,20.594776 35.4821291,20.5972723 35.4240451,20.5999187 C34.4504092,20.644341 33.4928017,20.9497183 32.6629433,21.4608106 C32.1548793,21.7737177 31.6948321,22.1638746 31.2961018,22.6080299 C32.2097167,22.2578757 33.1866946,22.0709035 34.1651049,22.0197151 C35.3217366,21.9591819 36.5101522,22.0903216 37.557723,22.5844785 C38.0814879,22.8315672 38.5643022,23.1694648 38.9598269,23.5924218 C39.355372,24.0153924 39.6612539,24.5252707 39.8246065,25.0808741 C39.8368433,25.1224809 39.8473395,25.164426 39.8579502,25.2063793 C39.9746433,24.5971663 39.9689345,23.9642859 39.7951969,23.3708284 C39.5338533,22.4780845 38.8987698,21.7152723 38.1008317,21.2372188 C37.352752,20.7890325 36.4713984,20.5828809 35.5985705,20.5939848 L35.5985834,20.5940189 Z" id="Shape" fill="url(#linearGradient-9)" opacity="0.614"></path>
                <path d="M20.3566632,17.743022 C19.7905084,17.744925 19.2236988,17.8222429 18.6780535,17.9724591 C17.4714271,18.3046343 16.3731112,18.9793793 15.4639297,19.8393846 C14.5547482,20.6993898 13.8287671,21.7418452 13.2538615,22.8535294 C12.4223662,24.4612733 11.8928174,26.2713153 12.0576705,28.0737183 C12.1400766,28.9749879 12.397969,29.8652765 12.8479696,30.6505283 C13.2979701,31.4357802 13.9432844,32.1131988 14.7266264,32.5664255 C15.1101878,32.7883599 15.5236097,32.9547408 15.9522823,33.0664753 C16.4982141,33.5570514 17.9387041,28.5354365 18.9938458,26.1149538 C20.2862067,23.1496443 22.9026443,20.6350378 24.3964166,19.3376296 C23.8542907,18.8085514 23.2012487,18.3902529 22.4922508,18.1217954 C21.8117424,17.8641417 21.084554,17.7408736 20.3566632,17.7433153 L20.3566632,17.743022 Z" id="Shape" fill="url(#radialGradient-10)"></path>
                <path d="M19.0798531,19.8171563 C18.7699265,19.8158877 18.4587859,19.8562334 18.1600997,19.9387398 C17.494617,20.1225881 16.8931112,20.5036259 16.3990976,20.9859696 C16.0292251,21.3470845 15.7186301,21.7648783 15.4539035,22.2096474 C16.0006264,21.8139932 16.6082844,21.5058332 17.2580797,21.3272025 C18.2070934,21.0662067 19.2408185,21.0893421 20.1624134,21.435063 C20.5165236,21.5679071 20.8526548,21.7481815 21.1586254,21.9704024 C21.3440084,21.7388987 21.538149,21.5151159 21.7410336,21.2977854 C21.4043772,20.7261196 20.8649318,20.2771558 20.2467156,20.0348893 C19.8758132,19.8894953 19.4783788,19.8188001 19.0799213,19.8172109 L19.0798531,19.8171563 Z" id="Shape" fill="url(#linearGradient-11)" opacity="0.626"></path>
                <path d="M25.2291161,19.4640495 C17.6083547,28.3712536 15.402576,40.5428847 21.102396,49.1940554 C21.5697889,37.4353411 25.5406863,27.3289212 25.2291161,19.4640495 Z" id="Shape" fill="url(#linearGradient-12)"></path>
                <path d="M24.7259182,19.3369885 C13.2148478,28.2439664 17.4094963,45.0593914 20.5994753,49.0671563 C14.7917629,34.798531 20.3941763,27.4534627 24.7259182,19.3369885 Z" id="Shape" fill="url(#linearGradient-13)" opacity="0.366"></path>
                <ellipse id="Oval" fill="url(#linearGradient-14)" opacity="0.476" transform="translate(25.503334, 15.083898) rotate(57.446510) translate(-25.503334, -15.083898) " cx="25.5033343" cy="15.0838984" rx="1" ry="1.14313942"></ellipse>
                <path d="M3.87680343,48.7959819 C13.4447999,48.9098917 35.8847544,50.0489772 45.2249563,52.3271104 C34.2845451,64.8758889 15.1152929,58.9896289 3.87680343,48.7959819 Z" id="Shape" fill="url(#linearGradient-15)" opacity="0.222"></path>
                <path d="M36.4197796,25.3636411 C36.3725554,25.3641186 36.3251579,25.3657487 36.2777754,25.368702 C34.9489927,25.3696569 33.8073662,26.360958 33.2683368,27.5207954 C32.8889769,28.3022277 32.741032,29.1826264 32.8292629,30.0459738 C32.9001626,31.6276632 33.8907476,33.2231301 35.4248295,33.7496097 C36.4701495,34.1060115 37.6734339,33.8184837 38.4828987,33.0782135 C40.5071065,31.3275105 40.4405378,27.754011 38.3631432,26.0728095 C37.8144969,25.6286065 37.1281432,25.3571275 36.4198274,25.3638116 L36.4197796,25.3636411 Z" id="Shape" fill="#1D1D1D"></path>
                <path d="M17.6564008,23.749213 C17.6213977,23.7482445 17.5862718,23.7483877 17.5510299,23.7494858 C16.4956154,23.7772517 15.6486375,24.6417524 15.3403478,25.6034523 C15.1147371,26.3134732 15.1601689,27.1040451 15.3961646,27.805063 C15.7188797,28.5798111 16.4082003,29.2882634 17.2719569,29.3928227 C17.4941232,29.3893033 17.8689474,29.5080971 17.89846,29.1896721 C18.3344238,27.8477938 18.9034705,26.5569334 19.4841054,25.2739848 C19.6682129,24.8956821 19.2770807,24.6104664 19.0468934,24.3751705 C18.6762297,24.0067985 18.1814317,23.7637135 17.6563845,23.7491994 L17.6564008,23.749213 Z" id="Shape" fill="#1D1D1D"></path>
                <path d="M17.5540923,23.7928646 C16.3087933,23.8219919 15.2760231,25.0049475 15.2212539,26.4980378 C15.218437,26.5742917 15.2178914,26.6493452 15.2201899,26.724235 C16.3948961,25.7179969 17.8741406,25.0679286 19.4879549,24.9319948 C19.0814627,24.2645136 18.4273568,23.8212655 17.6754575,23.7937104 L17.6753211,23.7937104 C17.6347339,23.7922235 17.5942655,23.7919711 17.5540992,23.7929124 L17.5540923,23.7928646 Z" id="Shape" fill="url(#linearGradient-16)" opacity="0.324"></path>
                <path d="M36.3870409,25.3881952 C34.4289244,25.3881952 32.841574,27.2845173 32.841574,29.6241081 C32.841574,29.8523993 32.8574959,30.0763594 32.8866006,30.2948426 C34.1351054,28.6349895 36.4440718,27.521873 39.0854726,27.521873 C39.2134674,27.521873 39.3415781,27.5226574 39.4679291,27.5278683 C38.8574884,26.2499669 37.7068588,25.3883248 36.3870791,25.3883248 L36.3870791,25.3881884 L36.3870409,25.3881952 Z" id="Shape" fill="url(#linearGradient-17)" opacity="0.312"></path>
            </g>
        </g>
    </g>
</svg>